<svg class="iconLeftSlogan" viewBox="35.4 120.60000000000001 232.20000000000002 59.400000000000006" xmlns="http://www.w3.org/2000/svg" data-v-fde0c5aa="" style="max-height: 500px" width="232.20000000000002" height="59.400000000000006"><defs data-v-fde0c5aa=""/><rect class="logo-background-square" height="300px" width="300px" y="0" x="0" fill="transparent" data-v-fde0c5aa=""/><defs data-v-fde0c5aa=""/><g transform="matrix(2.1884767210616953,0,0,2.1884767210616953,92.86017511177022,118.73894988627112)" fill="#2e3034" id="9b401690-cf96-482f-99b5-627b36cdb9f7" data-v-fde0c5aa=""><path d="M4.76 3.88Q6.13 3.88 6.84 4.59Q7.55 5.29 7.74 6.43L7.74 6.43L6.64 6.66Q6.47 5.84 5.97 5.36Q5.47 4.87 4.76 4.87L4.76 4.87Q3.78 4.87 3.05 5.75L3.05 5.75Q2.30 6.71 2.13 8.39L2.13 8.39Q1.90 10.93 3.11 11.73L3.11 11.73Q3.51 12.00 4.09 12.00L4.09 12.00Q5.04 12.00 5.64 11.45Q6.24 10.89 6.33 9.98L6.33 9.98L7.39 9.98Q7.25 11.38 6.33 12.19L6.33 12.19Q5.42 12.99 3.99 12.99L3.99 12.99Q2.44 12.99 1.64 11.72L1.64 11.72Q0.87 10.49 1.06 8.39L1.06 8.39Q1.26 6.24 2.35 5.03L2.35 5.03Q3.39 3.88 4.76 3.88ZM11.82 5.98L11.82 5.98Q12.42 5.98 12.91 6.20Q13.41 6.43 13.75 6.87L13.75 6.87Q14.46 7.83 14.29 9.49L14.29 9.49Q14.13 11.17 13.24 12.11L13.24 12.11Q12.40 12.99 11.14 12.99Q9.88 12.99 9.21 12.11L9.21 12.11Q8.50 11.17 8.67 9.49L8.67 9.49Q8.83 7.81 9.72 6.87L9.72 6.87Q10.54 5.98 11.82 5.98ZM11.75 6.93L11.75 6.93Q10.86 6.93 10.33 7.61Q9.80 8.29 9.69 9.49Q9.58 10.68 9.95 11.36Q10.32 12.04 11.20 12.04L11.20 12.04Q12.08 12.04 12.63 11.36Q13.17 10.68 13.29 9.49Q13.40 8.29 13.01 7.61Q12.63 6.93 11.75 6.93ZM19.99 12.84L19.96 11.72Q19.25 12.99 18.02 12.99L18.02 12.99Q16.97 12.99 16.31 12.17L16.31 12.17Q15.64 11.31 15.64 9.95L15.64 9.95Q15.64 8.47 16.39 7.32L16.39 7.32Q17.26 5.98 18.56 5.98Q19.85 5.98 20.34 7.13L20.34 7.13L20.71 3.30L21.70 3.30L20.80 12.84L19.99 12.84ZM18.59 6.96L18.59 6.96Q18.17 6.96 17.79 7.25Q17.40 7.53 17.15 7.97L17.15 7.97Q16.67 8.81 16.67 9.84Q16.67 10.88 17.12 11.45Q17.56 12.01 18.23 12.01L18.23 12.01Q18.87 12.01 19.39 11.49L19.39 11.49Q19.96 10.92 20.08 9.95L20.08 9.95L20.17 8.97Q20.26 7.99 19.80 7.45L19.80 7.45Q19.39 6.96 18.59 6.96ZM25.51 12.10L25.51 12.10Q26.74 12.10 27.05 10.88L27.05 10.88L28.07 10.88Q27.83 11.89 27.12 12.44Q26.40 12.99 25.42 12.99L25.42 12.99Q24.22 12.99 23.56 12.05L23.56 12.05Q22.86 11.07 23.03 9.51L23.03 9.51Q23.20 7.88 24.05 6.93L24.05 6.93Q24.89 5.98 26.08 5.98L26.08 5.98Q27.41 5.98 27.96 7.11L27.96 7.11Q28.46 8.13 28.13 9.73L28.13 9.73L24.00 9.73Q23.86 11.37 24.78 11.91L24.78 11.91Q25.07 12.10 25.51 12.10ZM26.71 7.03L26.71 7.03Q26.43 6.86 26.03 6.86Q25.62 6.86 25.30 7.02Q24.98 7.18 24.72 7.46L24.72 7.46Q24.23 8.02 24.09 8.89L24.09 8.89L27.31 8.89Q27.47 7.49 26.71 7.03ZM33.33 3.88Q34.71 3.88 35.41 4.59Q36.12 5.29 36.32 6.43L36.32 6.43L35.21 6.66Q35.04 5.84 34.55 5.36Q34.05 4.87 33.33 4.87L33.33 4.87Q32.35 4.87 31.63 5.75L31.63 5.75Q30.87 6.71 30.70 8.39L30.70 8.39Q30.48 10.93 31.68 11.73L31.68 11.73Q32.09 12.00 32.66 12.00L32.66 12.00Q33.61 12.00 34.22 11.45Q34.82 10.89 34.90 9.98L34.90 9.98L35.97 9.98Q35.83 11.38 34.90 12.19L34.90 12.19Q33.99 12.99 32.56 12.99L32.56 12.99Q31.01 12.99 30.21 11.72L30.21 11.72Q29.44 10.49 29.64 8.39L29.64 8.39Q29.83 6.24 30.93 5.03L30.93 5.03Q31.96 3.88 33.33 3.88ZM41.62 9.35L41.71 8.50Q41.79 7.59 41.49 7.20Q41.19 6.80 40.54 6.80Q39.90 6.80 39.47 7.08Q39.05 7.36 38.99 7.99L38.99 7.99L37.88 7.99Q38.00 6.90 38.74 6.44Q39.48 5.98 40.56 5.98L40.56 5.98Q42.25 5.98 42.62 7.38L42.62 7.38Q42.74 7.85 42.69 8.53L42.69 8.53L42.28 12.84L41.44 12.84L41.44 11.72Q40.75 12.99 39.30 12.99L39.30 12.99Q38.40 12.99 37.86 12.45L37.86 12.45Q37.35 11.94 37.35 11.28Q37.35 10.63 37.55 10.22Q37.76 9.81 38.09 9.53L38.09 9.53Q38.79 8.99 39.79 8.99Q40.78 8.99 41.62 9.35L41.62 9.35ZM41.54 10.18L41.55 10.05Q40.68 9.77 39.99 9.77Q39.30 9.77 38.86 10.09Q38.42 10.40 38.42 11.12L38.42 11.12Q38.42 11.56 38.67 11.85Q38.93 12.14 39.59 12.14L39.59 12.14Q40.31 12.14 40.87 11.62L40.87 11.62Q41.48 11.06 41.54 10.18L41.54 10.18ZM46.10 6.15L46.09 7.45Q46.84 5.98 48.26 5.98L48.26 5.98Q49.04 5.98 49.53 6.41Q50.02 6.83 50.19 7.59L50.19 7.59Q50.90 5.98 52.44 5.98L52.44 5.98Q53.52 5.98 54.05 6.76Q54.57 7.55 54.43 8.90L54.43 8.90L54.07 12.84L53.09 12.84L53.45 8.90Q53.55 7.94 53.19 7.45Q52.82 6.96 52.05 6.96Q51.28 6.96 50.79 7.66Q50.30 8.36 50.19 9.59L50.19 9.59L50.18 9.59L49.88 12.84L48.90 12.84L49.27 8.90Q49.36 7.94 49 7.45Q48.64 6.96 47.87 6.96Q47.10 6.96 46.56 7.68Q46.02 8.40 45.91 9.67L45.91 9.67L45.61 12.84L44.62 12.84L45.25 6.15L46.10 6.15ZM57.85 6.15L57.86 7.17Q58.60 5.98 59.82 5.98L59.82 5.98Q60.91 5.98 61.60 6.90L61.60 6.90Q62.31 7.90 62.17 9.48L62.17 9.48Q62.01 11.07 61.10 12.05L61.10 12.05Q60.24 12.99 59.09 12.99Q57.95 12.99 57.47 12.03L57.47 12.03L57.08 16.13L56.08 16.13L57.04 6.15L57.85 6.15ZM57.64 10.12L57.65 10.12Q57.57 10.99 58.02 11.52L58.02 11.52Q58.42 12.01 59.09 12.01L59.09 12.01Q59.84 12.01 60.40 11.37L60.40 11.37Q61.01 10.68 61.14 9.49Q61.26 8.29 60.81 7.62Q60.35 6.96 59.60 6.96L59.60 6.96Q58.90 6.96 58.39 7.46L58.39 7.46Q57.85 8.01 57.76 8.95L57.76 8.95L57.75 8.95L57.64 10.12ZM67.98 12.84L68.11 11.51Q67.37 12.96 65.97 12.96L65.97 12.96Q64.95 12.96 64.39 12.33Q63.83 11.70 63.94 10.39L63.94 10.39L64.34 6.13L65.34 6.13L64.95 10.30Q64.78 12.00 66.21 12.00L66.21 12.00Q67.05 12.00 67.63 11.27L67.63 11.27Q68.19 10.56 68.31 9.39L68.31 9.39L68.61 6.13L69.61 6.13L68.98 12.84L67.98 12.84ZM71.68 7.78Q71.76 6.96 72.45 6.47Q73.14 5.98 74.21 5.98Q75.29 5.98 75.85 6.48Q76.41 6.99 76.37 7.76L76.37 7.76L75.40 7.76Q75.36 6.85 74.09 6.85L74.09 6.85Q73.47 6.85 73.11 7.15Q72.76 7.46 72.72 7.82Q72.69 8.18 72.92 8.42Q73.15 8.67 73.68 8.85L73.68 8.85L74.84 9.30Q75.60 9.56 75.97 9.98Q76.34 10.39 76.27 11.05L76.27 11.05Q76.19 11.84 75.49 12.39L75.49 12.39Q74.73 12.99 73.55 12.99Q72.37 12.99 71.75 12.40Q71.13 11.80 71.19 10.86L71.19 10.86L72.14 10.86Q72.11 11.49 72.52 11.81Q72.93 12.12 73.59 12.12Q74.26 12.12 74.70 11.82Q75.14 11.51 75.18 11.08Q75.22 10.65 74.99 10.43Q74.76 10.21 74.21 10.04L74.21 10.04L73.08 9.60Q71.55 9.10 71.68 7.78L71.68 7.78Z"/></g><defs data-v-fde0c5aa=""/><g transform="matrix(0.5562147066960801,0,0,0.5562147066960801,32.77866457329791,122.24126975576118)" fill="#488eff" stroke="none" id="3059fdc0-5f6e-4a6e-99db-9d413184d22b" data-v-fde0c5aa=""><g clip-rule="evenodd"><path d="M12.983 10.59l17.018 88.223-5.872-59.049 29.021-1.892-.054-9.883L64.549 1 53.622 18.977z"/><path d="M59.389 54.548l5.16-53.541-8.74 39.716-19.612 1.045 1.57 20.462-7.766 36.583 12.057-39.899z"/><path d="M62.8 67.182l.549-10.453-15.979 3.755-.032 11.797-17.337 26.532 21.68-27.616zM65.711 62.394l14.841-4.731 1.509-12.532-15.899 2.095zM72.07 44.502l10.988-1.417 1.581-10.278-8.079-.373L64.549 1l8.43 30.967z"/><path d="M87.413 31.294l1.256-9.506-9.544-2.694L64.549 1l14.483 22.437-.422 7z"/></g></g><defs data-v-fde0c5aa=""/><g transform="matrix(0.4389436184715808,0,0,0.4389436184715808,94.7904040998181,162.36670187731983)" fill="#2e3034" id="5354a177-b3cb-4a6d-8516-31ebb0aff200" data-v-fde0c5aa=""><path d="M7.81 9.52C7.39 9.11 6.79 8.86 6.01 8.75C6.33 8.67 6.61 8.55 6.86 8.40C7.11 8.25 7.34 8.08 7.50 7.87C7.67 7.66 7.81 7.43 7.90 7.20C7.98 6.96 8.04 6.71 8.04 6.44C8.04 6.05 7.95 5.68 7.83 5.38C7.70 5.07 7.49 4.80 7.22 4.58C6.96 4.37 6.62 4.20 6.20 4.09C5.78 3.98 5.29 3.92 4.73 3.92L1.89 3.92L0.70 3.92L0.70 4.19C0.70 4.34 0.80 4.42 0.98 4.44L1.12 4.44C1.19 4.44 1.29 4.45 1.43 4.45C1.57 4.45 1.72 4.47 1.89 4.47L1.89 13.26C1.72 13.26 1.57 13.27 1.43 13.27C1.29 13.27 1.19 13.29 1.12 13.29L0.98 13.29C0.80 13.30 0.71 13.38 0.71 13.54L0.71 13.82L1.89 13.82L5.10 13.82C5.63 13.82 6.09 13.76 6.51 13.64C6.93 13.51 7.28 13.34 7.56 13.10C7.84 12.87 8.06 12.59 8.22 12.25C8.37 11.91 8.44 11.54 8.44 11.12C8.44 10.46 8.23 9.93 7.81 9.52ZM2.60 4.48L4.73 4.48C5.61 4.48 6.27 4.66 6.69 5.00C7.11 5.35 7.32 5.84 7.32 6.51C7.32 6.76 7.28 7.03 7.18 7.27C7.08 7.50 6.93 7.71 6.72 7.91C6.51 8.11 6.24 8.26 5.92 8.37C5.60 8.48 5.21 8.55 4.75 8.55L2.60 8.55ZM7.06 12.68C6.61 13.06 5.95 13.24 5.08 13.24L2.60 13.24L2.60 9.07L5.10 9.07C5.52 9.07 5.88 9.11 6.20 9.21C6.52 9.31 6.80 9.45 7.03 9.62C7.25 9.80 7.42 10.00 7.55 10.25C7.66 10.50 7.73 10.79 7.73 11.10C7.73 11.79 7.50 12.31 7.06 12.68ZM24.95 3.92L24.23 3.92L22.88 3.92L22.88 4.19C22.88 4.34 22.97 4.42 23.16 4.44L23.32 4.44C23.42 4.44 23.56 4.45 23.73 4.45C23.90 4.45 24.07 4.47 24.23 4.47L24.23 10.04C24.23 10.50 24.16 10.92 24.02 11.33C23.88 11.73 23.69 12.08 23.42 12.38C23.16 12.67 22.85 12.89 22.47 13.06C22.09 13.23 21.67 13.31 21.20 13.31C20.72 13.31 20.29 13.23 19.91 13.06C19.53 12.89 19.21 12.66 18.96 12.36C18.69 12.07 18.51 11.72 18.37 11.33C18.23 10.93 18.16 10.50 18.16 10.04L18.16 4.47C18.33 4.47 18.49 4.45 18.66 4.45C18.83 4.45 18.97 4.44 19.07 4.44L19.24 4.44C19.42 4.42 19.52 4.34 19.52 4.19L19.52 3.92L18.16 3.92L17.44 3.92L16.27 3.92L16.27 4.19C16.27 4.34 16.35 4.42 16.53 4.44L16.67 4.44C16.74 4.44 16.84 4.45 16.98 4.45C17.12 4.45 17.28 4.47 17.44 4.47L17.44 10.04C17.44 10.58 17.53 11.09 17.70 11.56C17.86 12.04 18.12 12.46 18.44 12.81C18.76 13.16 19.17 13.44 19.63 13.64C20.09 13.83 20.62 13.93 21.20 13.93C21.77 13.93 22.29 13.83 22.75 13.64C23.21 13.44 23.62 13.16 23.94 12.81C24.26 12.46 24.51 12.04 24.68 11.56C24.85 11.09 24.95 10.58 24.95 10.04L24.95 4.47C25.12 4.47 25.26 4.45 25.40 4.45C25.54 4.45 25.65 4.44 25.72 4.44L25.84 4.44C26.03 4.42 26.12 4.34 26.12 4.19L26.12 3.92ZM36.96 4.44C37.14 4.42 37.23 4.34 37.23 4.19L37.23 3.91L36.05 3.91L35.34 3.91L34.15 3.91L34.15 4.19C34.15 4.34 34.24 4.42 34.43 4.44L34.57 4.44C34.64 4.44 34.73 4.45 34.87 4.45C35.01 4.45 35.17 4.47 35.34 4.47L35.34 13.26C35.17 13.26 35.01 13.27 34.87 13.27C34.73 13.27 34.64 13.29 34.57 13.29L34.43 13.29C34.24 13.30 34.15 13.38 34.15 13.54L34.15 13.82L35.34 13.82L36.05 13.82L37.23 13.82L37.23 13.54C37.23 13.38 37.14 13.30 36.96 13.29L36.82 13.29C36.75 13.29 36.65 13.27 36.51 13.27C36.37 13.27 36.22 13.26 36.05 13.26L36.05 4.47C36.22 4.47 36.37 4.45 36.51 4.45C36.65 4.45 36.75 4.44 36.82 4.44ZM51.94 11.97C51.74 11.97 51.66 12.08 51.65 12.31C51.65 12.32 51.65 12.38 51.63 12.43C51.62 12.49 51.62 12.59 51.60 12.71C51.59 12.84 51.58 13.01 51.56 13.20L47.47 13.20L47.47 4.47C47.64 4.47 47.78 4.45 47.92 4.45C48.06 4.45 48.17 4.44 48.24 4.44L48.37 4.44C48.55 4.42 48.65 4.34 48.65 4.19L48.65 3.92L47.47 3.92L46.76 3.92L45.57 3.92L45.57 4.19C45.57 4.34 45.67 4.42 45.85 4.44L45.99 4.44C46.06 4.44 46.16 4.45 46.30 4.45C46.44 4.45 46.59 4.47 46.76 4.47L46.76 13.26C46.59 13.26 46.44 13.27 46.30 13.27C46.16 13.27 46.06 13.29 45.99 13.29L45.85 13.29C45.67 13.30 45.57 13.38 45.57 13.54L45.57 13.82L46.76 13.82L52.04 13.82L52.16 13.82L52.29 13.82L52.29 13.55L52.29 12.99L52.29 11.97L52.01 11.97ZM69.72 6.80C69.50 6.19 69.17 5.68 68.75 5.25C68.33 4.82 67.84 4.48 67.27 4.26C66.70 4.03 66.04 3.92 65.34 3.92L61.91 3.92L60.72 3.92L60.72 4.19C60.72 4.34 60.82 4.42 61.00 4.44L61.14 4.44C61.21 4.44 61.31 4.45 61.45 4.45C61.59 4.45 61.74 4.47 61.91 4.47L61.91 13.26C61.74 13.26 61.59 13.27 61.45 13.27C61.31 13.27 61.21 13.29 61.14 13.29L61.00 13.29C60.82 13.30 60.72 13.38 60.72 13.54L60.72 13.82L61.91 13.82L65.34 13.82C66.04 13.82 66.70 13.71 67.27 13.48C67.84 13.26 68.33 12.92 68.75 12.49C69.17 12.05 69.50 11.54 69.72 10.92C69.94 10.30 70.07 9.63 70.07 8.86C70.07 8.11 69.94 7.42 69.72 6.80ZM69.03 10.72C68.84 11.27 68.59 11.72 68.24 12.10C67.89 12.47 67.47 12.75 66.98 12.95C66.49 13.15 65.94 13.24 65.34 13.24L62.62 13.24L62.62 4.49L65.34 4.49C65.94 4.49 66.49 4.59 66.98 4.79C67.47 4.98 67.89 5.26 68.24 5.64C68.59 6.02 68.84 6.47 69.03 7.01C69.23 7.56 69.33 8.18 69.33 8.86C69.33 9.56 69.23 10.18 69.03 10.72ZM81.17 4.44C81.35 4.42 81.44 4.34 81.44 4.19L81.44 3.91L80.26 3.91L79.55 3.91L78.36 3.91L78.36 4.19C78.36 4.34 78.46 4.42 78.64 4.44L78.78 4.44C78.85 4.44 78.95 4.45 79.09 4.45C79.23 4.45 79.38 4.47 79.55 4.47L79.55 13.26C79.38 13.26 79.23 13.27 79.09 13.27C78.95 13.27 78.85 13.29 78.78 13.29L78.64 13.29C78.46 13.30 78.36 13.38 78.36 13.54L78.36 13.82L79.55 13.82L80.26 13.82L81.44 13.82L81.44 13.54C81.44 13.38 81.35 13.30 81.17 13.29L81.03 13.29C80.96 13.29 80.86 13.27 80.72 13.27C80.58 13.27 80.43 13.26 80.26 13.26L80.26 4.47C80.43 4.47 80.58 4.45 80.72 4.45C80.86 4.45 80.96 4.44 81.03 4.44ZM98.62 3.92L97.99 3.92L96.77 3.92L96.77 4.19C96.77 4.34 96.87 4.42 97.05 4.44L97.19 4.44C97.26 4.44 97.37 4.45 97.51 4.45C97.65 4.45 97.82 4.47 97.99 4.47L97.99 12.22C97.99 12.35 97.99 12.49 98.00 12.63L91.59 4.05C91.55 3.99 91.52 3.95 91.48 3.93C91.43 3.92 91.39 3.91 91.32 3.91L90.97 3.91L89.78 3.91L89.78 4.19C89.78 4.34 89.88 4.42 90.06 4.44L90.20 4.44C90.27 4.44 90.37 4.45 90.51 4.45C90.65 4.45 90.80 4.47 90.97 4.47L90.97 13.26C90.80 13.26 90.65 13.27 90.51 13.27C90.37 13.27 90.27 13.29 90.20 13.29L90.06 13.29C89.88 13.30 89.78 13.38 89.78 13.54L89.78 13.82L90.97 13.82L91.59 13.82L92.81 13.82L92.81 13.54C92.81 13.38 92.71 13.30 92.53 13.29L92.39 13.29C92.32 13.29 92.19 13.27 92.05 13.27C91.91 13.27 91.76 13.26 91.59 13.26L91.59 5.49C91.59 5.36 91.59 5.22 91.57 5.08L98.01 13.68C98.08 13.78 98.15 13.82 98.27 13.82L98.62 13.82L98.62 4.47C98.78 4.47 98.92 4.45 99.06 4.45C99.20 4.45 99.32 4.44 99.39 4.44L99.51 4.44C99.69 4.42 99.79 4.34 99.79 4.19L99.79 3.92ZM113.47 9.32L113.47 9.72C113.47 9.76 113.50 9.80 113.53 9.83C113.55 9.86 113.60 9.87 113.65 9.87L115.56 9.87L115.56 12.54C115.33 12.67 115.11 12.78 114.90 12.88C114.69 12.98 114.45 13.08 114.21 13.15C113.97 13.22 113.71 13.27 113.43 13.30C113.15 13.33 112.84 13.34 112.50 13.34C111.89 13.34 111.33 13.24 110.82 13.03C110.32 12.82 109.89 12.53 109.52 12.15C109.16 11.77 108.88 11.30 108.68 10.74C108.49 10.18 108.37 9.56 108.37 8.86C108.37 8.18 108.49 7.56 108.68 7.01C108.88 6.47 109.16 5.99 109.52 5.61C109.89 5.24 110.33 4.94 110.85 4.73C111.37 4.52 111.94 4.42 112.59 4.42C113.76 4.42 114.70 4.58 115.39 4.90C115.43 5.81 115.46 6.31 115.46 6.41C115.47 6.64 115.57 6.75 115.77 6.75L116.10 6.75L116.10 4.51C115.67 4.31 115.11 4.14 114.41 4.00C113.71 3.86 113.12 3.81 112.62 3.81C111.86 3.81 111.17 3.92 110.56 4.16C109.94 4.40 109.42 4.75 108.99 5.18C108.56 5.61 108.23 6.15 108.00 6.78C107.76 7.39 107.65 8.09 107.65 8.86C107.65 9.63 107.76 10.32 108.00 10.95C108.23 11.58 108.56 12.10 108.98 12.54C109.40 12.99 109.91 13.33 110.50 13.57C111.09 13.80 111.73 13.93 112.45 13.93C112.87 13.93 113.25 13.90 113.60 13.86C113.95 13.80 114.27 13.73 114.58 13.65C114.88 13.55 115.16 13.44 115.43 13.30C115.70 13.16 115.95 13.01 116.20 12.84L116.20 9.32ZM142.09 9.52C141.67 9.11 141.06 8.86 140.28 8.75C140.60 8.67 140.88 8.55 141.13 8.40C141.39 8.25 141.61 8.08 141.78 7.87C141.95 7.66 142.09 7.43 142.17 7.20C142.25 6.96 142.31 6.71 142.31 6.44C142.31 6.05 142.23 5.68 142.10 5.38C141.97 5.07 141.76 4.80 141.50 4.58C141.23 4.37 140.90 4.20 140.48 4.09C140.06 3.98 139.57 3.92 139.01 3.92L136.16 3.92L134.97 3.92L134.97 4.19C134.97 4.34 135.07 4.42 135.25 4.44L135.39 4.44C135.46 4.44 135.56 4.45 135.70 4.45C135.84 4.45 136.00 4.47 136.16 4.47L136.16 13.26C136.00 13.26 135.84 13.27 135.70 13.27C135.56 13.27 135.46 13.29 135.39 13.29L135.25 13.29C135.07 13.30 134.99 13.38 134.99 13.54L134.99 13.82L136.16 13.82L139.37 13.82C139.90 13.82 140.36 13.76 140.78 13.64C141.20 13.51 141.55 13.34 141.83 13.10C142.11 12.87 142.34 12.59 142.49 12.25C142.65 11.91 142.72 11.54 142.72 11.12C142.72 10.46 142.51 9.93 142.09 9.52ZM136.88 4.48L139.01 4.48C139.89 4.48 140.55 4.66 140.97 5.00C141.39 5.35 141.60 5.84 141.60 6.51C141.60 6.76 141.55 7.03 141.46 7.27C141.36 7.50 141.20 7.71 140.99 7.91C140.78 8.11 140.52 8.26 140.20 8.37C139.87 8.48 139.48 8.55 139.02 8.55L136.88 8.55ZM141.33 12.68C140.88 13.06 140.22 13.24 139.36 13.24L136.88 13.24L136.88 9.07L139.37 9.07C139.79 9.07 140.15 9.11 140.48 9.21C140.80 9.31 141.08 9.45 141.30 9.62C141.53 9.80 141.69 10.00 141.82 10.25C141.93 10.50 142.00 10.79 142.00 11.10C142.00 11.79 141.78 12.31 141.33 12.68ZM158.90 13.29L158.80 13.29L158.62 13.29C158.54 13.29 158.45 13.27 158.37 13.27L155.40 9.53C155.32 9.42 155.20 9.32 155.09 9.25C155.53 9.21 155.92 9.11 156.27 8.96C156.62 8.81 156.90 8.61 157.15 8.37C157.39 8.13 157.58 7.85 157.71 7.55C157.84 7.24 157.91 6.89 157.91 6.51C157.91 5.66 157.63 5.03 157.07 4.58C156.51 4.14 155.65 3.92 154.50 3.92L152.10 3.92L150.92 3.92L150.92 4.19C150.92 4.34 151.00 4.42 151.19 4.44L151.33 4.44C151.40 4.44 151.49 4.45 151.63 4.45C151.77 4.45 151.93 4.47 152.10 4.47L152.10 13.26C151.93 13.26 151.77 13.27 151.63 13.27C151.49 13.27 151.40 13.29 151.33 13.29L151.19 13.29C151.00 13.30 150.91 13.38 150.91 13.54L150.91 13.82L152.10 13.82L152.81 13.82L153.99 13.82L153.99 13.54C153.99 13.38 153.89 13.30 153.71 13.29L153.57 13.29C153.50 13.29 153.40 13.27 153.26 13.27C153.12 13.27 152.98 13.26 152.81 13.26L152.81 9.34L153.99 9.34C154.18 9.34 154.32 9.35 154.41 9.39C154.49 9.44 154.57 9.52 154.66 9.62L157.84 13.64C157.89 13.71 157.93 13.75 157.99 13.78C158.05 13.80 158.12 13.82 158.19 13.82L158.26 13.82L158.80 13.82L159.17 13.82L159.17 13.54C159.17 13.38 159.08 13.30 158.90 13.29ZM154.41 8.81L152.81 8.81L152.81 4.48L154.50 4.48C155.39 4.48 156.06 4.66 156.52 5.00C156.98 5.33 157.21 5.87 157.21 6.57C157.21 6.92 157.15 7.21 157.02 7.49C156.90 7.77 156.70 7.99 156.46 8.19C156.23 8.39 155.93 8.55 155.58 8.65C155.23 8.75 154.84 8.81 154.41 8.81ZM170.18 4.44C170.37 4.42 170.45 4.34 170.45 4.19L170.45 3.91L169.27 3.91L168.56 3.91L167.37 3.91L167.37 4.19C167.37 4.34 167.47 4.42 167.65 4.44L167.79 4.44C167.86 4.44 167.96 4.45 168.10 4.45C168.24 4.45 168.39 4.47 168.56 4.47L168.56 13.26C168.39 13.26 168.24 13.27 168.10 13.27C167.96 13.27 167.86 13.29 167.79 13.29L167.65 13.29C167.47 13.30 167.37 13.38 167.37 13.54L167.37 13.82L168.56 13.82L169.27 13.82L170.45 13.82L170.45 13.54C170.45 13.38 170.37 13.30 170.18 13.29L170.04 13.29C169.97 13.29 169.88 13.27 169.74 13.27C169.60 13.27 169.44 13.26 169.27 13.26L169.27 4.47C169.44 4.47 169.60 4.45 169.74 4.45C169.88 4.45 169.97 4.44 170.04 4.44ZM184.44 9.32L184.44 9.72C184.44 9.76 184.46 9.80 184.49 9.83C184.52 9.86 184.56 9.87 184.62 9.87L186.52 9.87L186.52 12.54C186.30 12.67 186.07 12.78 185.86 12.88C185.65 12.98 185.42 13.08 185.18 13.15C184.94 13.22 184.67 13.27 184.39 13.30C184.11 13.33 183.81 13.34 183.47 13.34C182.85 13.34 182.29 13.24 181.79 13.03C181.29 12.82 180.85 12.53 180.49 12.15C180.12 11.77 179.84 11.30 179.65 10.74C179.45 10.18 179.34 9.56 179.34 8.86C179.34 8.18 179.45 7.56 179.65 7.01C179.84 6.47 180.12 5.99 180.49 5.61C180.85 5.24 181.30 4.94 181.82 4.73C182.34 4.52 182.91 4.42 183.55 4.42C184.73 4.42 185.67 4.58 186.35 4.90C186.40 5.81 186.42 6.31 186.42 6.41C186.44 6.64 186.54 6.75 186.73 6.75L187.07 6.75L187.07 4.51C186.63 4.31 186.07 4.14 185.37 4.00C184.67 3.86 184.09 3.81 183.58 3.81C182.83 3.81 182.14 3.92 181.52 4.16C180.91 4.40 180.39 4.75 179.96 5.18C179.52 5.61 179.20 6.15 178.96 6.78C178.72 7.39 178.61 8.09 178.61 8.86C178.61 9.63 178.72 10.32 178.96 10.95C179.20 11.58 179.52 12.10 179.94 12.54C180.36 12.99 180.88 13.33 181.47 13.57C182.06 13.80 182.70 13.93 183.41 13.93C183.83 13.93 184.21 13.90 184.56 13.86C184.91 13.80 185.23 13.73 185.54 13.65C185.85 13.55 186.13 13.44 186.40 13.30C186.66 13.16 186.91 13.01 187.17 12.84L187.17 9.32ZM205.30 4.44C205.48 4.42 205.58 4.34 205.58 4.19L205.58 3.92L204.40 3.92L203.67 3.92L202.50 3.92L202.50 4.19C202.50 4.34 202.59 4.42 202.78 4.44L202.90 4.44C202.97 4.44 203.08 4.45 203.22 4.45C203.36 4.45 203.50 4.47 203.67 4.47L203.67 8.53L197.47 8.53L197.47 4.47C197.64 4.47 197.79 4.45 197.93 4.45C198.07 4.45 198.17 4.44 198.24 4.44L198.38 4.44C198.56 4.42 198.65 4.34 198.65 4.19L198.65 3.92L197.47 3.92L196.76 3.92L195.57 3.92L195.57 4.19C195.57 4.34 195.66 4.42 195.85 4.44L195.99 4.44C196.06 4.44 196.15 4.45 196.29 4.45C196.43 4.45 196.59 4.47 196.76 4.47L196.76 13.26C196.59 13.26 196.43 13.27 196.29 13.27C196.15 13.27 196.06 13.29 195.99 13.29L195.85 13.29C195.66 13.30 195.57 13.38 195.57 13.54L195.57 13.82L196.76 13.82L197.47 13.82L198.65 13.82L198.65 13.54C198.65 13.38 198.56 13.30 198.38 13.29L198.24 13.29C198.17 13.29 198.07 13.27 197.93 13.27C197.79 13.27 197.64 13.26 197.47 13.26L197.47 9.07L203.67 9.07L203.67 13.26C203.50 13.26 203.36 13.27 203.22 13.27C203.08 13.27 202.97 13.29 202.90 13.29L202.78 13.29C202.59 13.30 202.50 13.38 202.50 13.54L202.50 13.82L203.67 13.82L204.40 13.82L205.58 13.82L205.58 13.54C205.58 13.38 205.48 13.30 205.30 13.29L205.17 13.29C205.10 13.29 204.99 13.27 204.85 13.27C204.71 13.27 204.57 13.26 204.40 13.26L204.40 4.47C204.57 4.47 204.71 4.45 204.85 4.45C204.99 4.45 205.10 4.44 205.17 4.44ZM221.44 3.92L221.24 3.92L213.95 3.92L213.74 3.92L213.64 3.92L213.64 5.96L213.99 5.96C214.19 5.96 214.27 5.85 214.28 5.63C214.28 5.53 214.31 5.17 214.34 4.52L217.24 4.52L217.24 13.26C217.07 13.26 216.93 13.27 216.79 13.27C216.65 13.27 216.54 13.29 216.47 13.29L216.34 13.29C216.16 13.30 216.06 13.38 216.06 13.54L216.06 13.82L217.24 13.82L217.95 13.82L219.14 13.82L219.14 13.54C219.14 13.38 219.04 13.30 218.86 13.29L218.72 13.29C218.65 13.29 218.55 13.27 218.41 13.27C218.27 13.27 218.12 13.26 217.95 13.26L217.95 4.52L220.84 4.52C220.88 5.24 220.89 5.60 220.89 5.63C220.91 5.85 221.00 5.96 221.20 5.96L221.54 5.96L221.54 3.92ZM230.83 3.92L229.64 3.92L229.64 4.19C229.64 4.34 229.74 4.42 229.92 4.44L230.06 4.44C230.13 4.44 230.23 4.45 230.37 4.45C230.51 4.45 230.66 4.47 230.83 4.47L230.83 13.26C230.66 13.26 230.51 13.27 230.37 13.27C230.23 13.27 230.13 13.29 230.06 13.29L229.92 13.29C229.74 13.30 229.66 13.38 229.66 13.54L229.66 13.82L230.83 13.82L236.77 13.82L236.77 13.22L236.77 11.76L236.42 11.76C236.22 11.76 236.14 11.89 236.12 12.11C236.12 12.14 236.11 12.19 236.11 12.29C236.11 12.39 236.11 12.53 236.10 12.74C236.08 12.95 236.07 13.09 236.07 13.22L231.55 13.22L231.55 9.09L235.49 9.09L235.49 8.51L231.55 8.51L231.55 4.51L236.07 4.51C236.10 5.12 236.12 5.50 236.12 5.63C236.14 5.85 236.22 5.96 236.42 5.96L236.77 5.96L236.77 4.51L236.77 3.92ZM253.34 13.29L253.25 13.29L253.06 13.29C252.98 13.29 252.90 13.27 252.81 13.27L249.84 9.53C249.76 9.42 249.65 9.32 249.54 9.25C249.97 9.21 250.36 9.11 250.71 8.96C251.06 8.81 251.34 8.61 251.59 8.37C251.83 8.13 252.03 7.85 252.15 7.55C252.28 7.24 252.35 6.89 252.35 6.51C252.35 5.66 252.07 5.03 251.51 4.58C250.95 4.14 250.10 3.92 248.95 3.92L246.54 3.92L245.36 3.92L245.36 4.19C245.36 4.34 245.45 4.42 245.63 4.44L245.77 4.44C245.84 4.44 245.94 4.45 246.08 4.45C246.22 4.45 246.37 4.47 246.54 4.47L246.54 13.26C246.37 13.26 246.22 13.27 246.08 13.27C245.94 13.27 245.84 13.29 245.77 13.29L245.63 13.29C245.45 13.30 245.35 13.38 245.35 13.54L245.35 13.82L246.54 13.82L247.25 13.82L248.43 13.82L248.43 13.54C248.43 13.38 248.33 13.30 248.15 13.29L248.01 13.29C247.94 13.29 247.84 13.27 247.70 13.27C247.56 13.27 247.42 13.26 247.25 13.26L247.25 9.34L248.43 9.34C248.63 9.34 248.77 9.35 248.85 9.39C248.93 9.44 249.02 9.52 249.10 9.62L252.28 13.64C252.34 13.71 252.38 13.75 252.43 13.78C252.49 13.80 252.56 13.82 252.63 13.82L252.70 13.82L253.25 13.82L253.61 13.82L253.61 13.54C253.61 13.38 253.53 13.30 253.34 13.29ZM248.85 8.81L247.25 8.81L247.25 4.48L248.95 4.48C249.83 4.48 250.50 4.66 250.96 5.00C251.43 5.33 251.65 5.87 251.65 6.57C251.65 6.92 251.59 7.21 251.47 7.49C251.34 7.77 251.15 7.99 250.91 8.19C250.67 8.39 250.38 8.55 250.03 8.65C249.68 8.75 249.28 8.81 248.85 8.81ZM279.31 3.92L278.96 3.92L273.38 3.92L272.19 3.92L272.19 4.19C272.19 4.34 272.29 4.42 272.47 4.44L272.61 4.44C272.68 4.44 272.78 4.45 272.92 4.45C273.06 4.45 273.21 4.47 273.38 4.47L273.38 13.26C273.21 13.26 273.06 13.27 272.92 13.27C272.78 13.27 272.68 13.29 272.61 13.29L272.47 13.29C272.29 13.30 272.19 13.38 272.19 13.54L272.19 13.82L273.38 13.82L274.09 13.82L275.27 13.82L275.27 13.54C275.27 13.38 275.18 13.30 275.00 13.29L274.86 13.29C274.79 13.29 274.69 13.27 274.55 13.27C274.41 13.27 274.26 13.26 274.09 13.26L274.09 9.27L277.79 9.27L277.79 8.67L274.09 8.67L274.09 4.51L278.70 4.51C278.73 5.18 278.75 5.56 278.75 5.63C278.77 5.85 278.87 5.96 279.06 5.96L279.40 5.96L279.40 3.92ZM295.83 3.92L295.12 3.92L293.76 3.92L293.76 4.19C293.76 4.34 293.86 4.42 294.04 4.44L294.21 4.44C294.31 4.44 294.45 4.45 294.62 4.45C294.78 4.45 294.95 4.47 295.12 4.47L295.12 10.04C295.12 10.50 295.05 10.92 294.91 11.33C294.77 11.73 294.57 12.08 294.31 12.38C294.04 12.67 293.73 12.89 293.36 13.06C292.98 13.23 292.56 13.31 292.08 13.31C291.61 13.31 291.17 13.23 290.79 13.06C290.42 12.89 290.09 12.66 289.84 12.36C289.58 12.07 289.39 11.72 289.25 11.33C289.11 10.93 289.04 10.50 289.04 10.04L289.04 4.47C289.21 4.47 289.38 4.45 289.55 4.45C289.72 4.45 289.86 4.44 289.95 4.44L290.12 4.44C290.30 4.42 290.40 4.34 290.40 4.19L290.40 3.92L289.04 3.92L288.33 3.92L287.15 3.92L287.15 4.19C287.15 4.34 287.24 4.42 287.42 4.44L287.56 4.44C287.63 4.44 287.73 4.45 287.87 4.45C288.01 4.45 288.16 4.47 288.33 4.47L288.33 10.04C288.33 10.58 288.41 11.09 288.58 11.56C288.75 12.04 289.00 12.46 289.32 12.81C289.65 13.16 290.05 13.44 290.51 13.64C290.98 13.83 291.51 13.93 292.08 13.93C292.66 13.93 293.17 13.83 293.64 13.64C294.10 13.44 294.50 13.16 294.83 12.81C295.15 12.46 295.40 12.04 295.57 11.56C295.74 11.09 295.83 10.58 295.83 10.04L295.83 4.47C296.00 4.47 296.14 4.45 296.28 4.45C296.42 4.45 296.53 4.44 296.60 4.44L296.73 4.44C296.91 4.42 297.01 4.34 297.01 4.19L297.01 3.92ZM312.55 3.92L312.35 3.92L305.06 3.92L304.85 3.92L304.75 3.92L304.75 5.96L305.10 5.96C305.30 5.96 305.38 5.85 305.40 5.63C305.40 5.53 305.42 5.17 305.45 4.52L308.35 4.52L308.35 13.26C308.18 13.26 308.04 13.27 307.90 13.27C307.76 13.27 307.65 13.29 307.58 13.29L307.45 13.29C307.27 13.30 307.17 13.38 307.17 13.54L307.17 13.82L308.35 13.82L309.06 13.82L310.25 13.82L310.25 13.54C310.25 13.38 310.16 13.30 309.97 13.29L309.83 13.29C309.76 13.29 309.67 13.27 309.53 13.27C309.39 13.27 309.23 13.26 309.06 13.26L309.06 4.52L311.95 4.52C311.99 5.24 312.00 5.60 312.00 5.63C312.02 5.85 312.12 5.96 312.31 5.96L312.65 5.96L312.65 3.92ZM329.07 3.92L328.36 3.92L327.00 3.92L327.00 4.19C327.00 4.34 327.10 4.42 327.28 4.44L327.45 4.44C327.54 4.44 327.68 4.45 327.85 4.45C328.02 4.45 328.19 4.47 328.36 4.47L328.36 10.04C328.36 10.50 328.29 10.92 328.15 11.33C328.01 11.73 327.81 12.08 327.54 12.38C327.28 12.67 326.97 12.89 326.59 13.06C326.21 13.23 325.79 13.31 325.32 13.31C324.84 13.31 324.41 13.23 324.03 13.06C323.65 12.89 323.33 12.66 323.08 12.36C322.81 12.07 322.63 11.72 322.49 11.33C322.35 10.93 322.28 10.50 322.28 10.04L322.28 4.47C322.45 4.47 322.62 4.45 322.78 4.45C322.95 4.45 323.09 4.44 323.19 4.44L323.36 4.44C323.54 4.42 323.64 4.34 323.64 4.19L323.64 3.92L322.28 3.92L321.57 3.92L320.39 3.92L320.39 4.19C320.39 4.34 320.47 4.42 320.66 4.44L320.80 4.44C320.87 4.44 320.96 4.45 321.10 4.45C321.24 4.45 321.40 4.47 321.57 4.47L321.57 10.04C321.57 10.58 321.65 11.09 321.82 11.56C321.99 12.04 322.24 12.46 322.56 12.81C322.88 13.16 323.29 13.44 323.75 13.64C324.21 13.83 324.74 13.93 325.32 13.93C325.89 13.93 326.41 13.83 326.87 13.64C327.33 13.44 327.74 13.16 328.06 12.81C328.38 12.46 328.64 12.04 328.80 11.56C328.97 11.09 329.07 10.58 329.07 10.04L329.07 4.47C329.24 4.47 329.38 4.45 329.52 4.45C329.66 4.45 329.77 4.44 329.84 4.44L329.97 4.44C330.15 4.42 330.25 4.34 330.25 4.19L330.25 3.92ZM346.26 13.29L346.16 13.29L345.98 13.29C345.90 13.29 345.81 13.27 345.73 13.27L342.76 9.53C342.68 9.42 342.57 9.32 342.45 9.25C342.89 9.21 343.28 9.11 343.63 8.96C343.98 8.81 344.26 8.61 344.51 8.37C344.75 8.13 344.95 7.85 345.07 7.55C345.20 7.24 345.27 6.89 345.27 6.51C345.27 5.66 344.99 5.03 344.43 4.58C343.87 4.14 343.01 3.92 341.87 3.92L339.46 3.92L338.28 3.92L338.28 4.19C338.28 4.34 338.37 4.42 338.55 4.44L338.69 4.44C338.76 4.44 338.86 4.45 339.00 4.45C339.14 4.45 339.29 4.47 339.46 4.47L339.46 13.26C339.29 13.26 339.14 13.27 339.00 13.27C338.86 13.27 338.76 13.29 338.69 13.29L338.55 13.29C338.37 13.30 338.27 13.38 338.27 13.54L338.27 13.82L339.46 13.82L340.17 13.82L341.35 13.82L341.35 13.54C341.35 13.38 341.25 13.30 341.07 13.29L340.93 13.29C340.86 13.29 340.76 13.27 340.62 13.27C340.48 13.27 340.34 13.26 340.17 13.26L340.17 9.34L341.35 9.34C341.54 9.34 341.68 9.35 341.77 9.39C341.85 9.44 341.94 9.52 342.02 9.62L345.20 13.64C345.25 13.71 345.30 13.75 345.35 13.78C345.41 13.80 345.48 13.82 345.55 13.82L345.62 13.82L346.16 13.82L346.53 13.82L346.53 13.54C346.53 13.38 346.44 13.30 346.26 13.29ZM341.77 8.81L340.17 8.81L340.17 4.48L341.87 4.48C342.75 4.48 343.42 4.66 343.88 5.00C344.34 5.33 344.57 5.87 344.57 6.57C344.57 6.92 344.51 7.21 344.39 7.49C344.26 7.77 344.06 7.99 343.83 8.19C343.59 8.39 343.29 8.55 342.94 8.65C342.59 8.75 342.20 8.81 341.77 8.81ZM355.92 3.92L354.73 3.92L354.73 4.19C354.73 4.34 354.83 4.42 355.01 4.44L355.15 4.44C355.22 4.44 355.32 4.45 355.46 4.45C355.60 4.45 355.75 4.47 355.92 4.47L355.92 13.26C355.75 13.26 355.60 13.27 355.46 13.27C355.32 13.27 355.22 13.29 355.15 13.29L355.01 13.29C354.83 13.30 354.75 13.38 354.75 13.54L354.75 13.82L355.92 13.82L361.86 13.82L361.86 13.22L361.86 11.76L361.51 11.76C361.31 11.76 361.23 11.89 361.21 12.11C361.21 12.14 361.20 12.19 361.20 12.29C361.20 12.39 361.20 12.53 361.19 12.74C361.17 12.95 361.16 13.09 361.16 13.22L356.64 13.22L356.64 9.09L360.58 9.09L360.58 8.51L356.64 8.51L356.64 4.51L361.16 4.51C361.19 5.12 361.21 5.50 361.21 5.63C361.23 5.85 361.31 5.96 361.51 5.96L361.86 5.96L361.86 4.51L361.86 3.92ZM376.17 9.91C376.03 9.65 375.83 9.39 375.59 9.21C375.35 9.03 375.10 8.88 374.81 8.75C374.51 8.62 374.19 8.51 373.88 8.41C373.58 8.32 373.27 8.20 372.97 8.11C372.68 7.99 372.41 7.87 372.18 7.71C371.94 7.56 371.76 7.38 371.62 7.15C371.48 6.93 371.39 6.65 371.39 6.31C371.39 6.06 371.45 5.82 371.55 5.59C371.64 5.35 371.78 5.15 371.97 4.97C372.15 4.79 372.37 4.65 372.65 4.55C372.93 4.45 373.24 4.40 373.60 4.40C374.28 4.40 374.89 4.51 375.45 4.75C375.49 5.54 375.52 5.99 375.52 6.06C375.54 6.29 375.62 6.41 375.82 6.41L376.15 6.41L376.15 4.38C375.27 4.00 374.43 3.81 373.60 3.81C373.14 3.81 372.74 3.88 372.37 4.02C372.01 4.16 371.71 4.34 371.48 4.58C371.24 4.82 371.04 5.08 370.92 5.39C370.79 5.70 370.73 6.02 370.73 6.36C370.73 6.78 370.80 7.14 370.94 7.42C371.08 7.70 371.28 7.92 371.52 8.12C371.76 8.32 372.01 8.46 372.30 8.58C372.60 8.71 372.92 8.82 373.23 8.92C373.53 9.02 373.83 9.11 374.14 9.21C374.43 9.31 374.70 9.45 374.93 9.60C375.17 9.76 375.35 9.94 375.49 10.16C375.63 10.39 375.70 10.68 375.70 11.03C375.70 11.35 375.65 11.66 375.54 11.94C375.42 12.22 375.27 12.46 375.06 12.67C374.85 12.88 374.58 13.05 374.28 13.16C373.97 13.29 373.62 13.33 373.23 13.33C372.44 13.33 371.78 13.20 371.25 12.95C371.24 12.75 371.24 12.54 371.22 12.32C371.21 12.10 371.21 11.91 371.20 11.76C371.18 11.61 371.18 11.52 371.18 11.51C371.17 11.28 371.07 11.17 370.87 11.17L370.54 11.17L370.54 13.02L370.54 13.20L370.54 13.38C371.39 13.75 372.27 13.93 373.20 13.93C373.70 13.93 374.15 13.85 374.54 13.69C374.93 13.54 375.27 13.31 375.54 13.05C375.80 12.78 376.03 12.46 376.17 12.10C376.31 11.73 376.38 11.34 376.38 10.92C376.38 10.51 376.31 10.18 376.17 9.91Z"/></g></svg>